<svg width="267" height="59" viewBox="0 0 267 59" fill="none" xmlns="http://www.w3.org/2000/svg">
<rect width="267" height="58.0599" rx="29.0299" fill="white"/>
<path d="M196.148 41.5369L189.864 41.5369L189.864 35.2534L191.435 24.2574L194.577 24.2574L196.148 35.2534L196.148 41.5369Z" fill="#004F98"/>
<path d="M190.083 18.321C189.93 18.7103 189.856 19.1264 189.865 19.5448C189.884 20.3656 190.223 21.1466 190.81 21.7205C191.397 22.2944 192.186 22.6157 193.007 22.6155C193.828 22.6153 194.616 22.2936 195.203 21.7194C195.79 21.1452 196.129 20.3641 196.147 19.5432C196.156 19.1248 196.082 18.7088 195.928 18.3196C195.774 17.9303 195.544 17.5758 195.252 17.2766C194.959 16.9775 194.61 16.7398 194.224 16.5776C193.838 16.4154 193.424 16.3319 193.005 16.332C192.587 16.3321 192.172 16.4158 191.787 16.5782C191.401 16.7406 191.052 16.9785 190.759 17.2777C190.467 17.577 190.237 17.9317 190.083 18.321Z" fill="#EE2E31"/>
<path d="M56.1597 41.5369L49.8762 41.5369L49.8762 35.2534L51.4471 24.2574L54.5888 24.2574L56.1597 35.2534L56.1597 41.5369Z" fill="#004F98"/>
<path d="M50.0953 18.321C49.9418 18.7103 49.8676 19.1264 49.877 19.5448C49.8956 20.3656 50.2348 21.1466 50.8219 21.7205C51.4091 22.2944 52.1977 22.6157 53.0187 22.6155C53.8398 22.6153 54.6282 22.2936 55.2151 21.7194C55.802 21.1452 56.1407 20.3641 56.1589 19.5432C56.1682 19.1248 56.0937 18.7088 55.94 18.3196C55.7862 17.9303 55.5563 17.5758 55.2636 17.2766C54.971 16.9775 54.6215 16.7398 54.2357 16.5776C53.8499 16.4154 53.4356 16.3319 53.0172 16.332C52.5987 16.3321 52.1844 16.4158 51.7987 16.5782C51.413 16.7406 51.0637 16.9785 50.7712 17.2777C50.4786 17.577 50.2489 17.9317 50.0953 18.321Z" fill="#EE2E31"/>
<path d="M33.9216 16.4453C35.7266 16.4453 37.4248 16.7659 39.016 17.4072C40.6073 18.0485 41.967 18.9272 43.0951 20.0435C44.2351 21.1478 45.1317 22.4779 45.7848 24.0335C46.438 25.5891 46.7645 27.2516 46.7645 29.021C46.7645 30.7904 46.438 32.4529 45.7848 34.0086C45.1317 35.5642 44.2351 36.9001 43.0951 38.0164C41.967 39.1327 40.6073 40.0114 39.016 40.6527C37.4248 41.2939 35.7266 41.6146 33.9216 41.6146H24V16.4453H33.9216ZM33.7791 36.2886C35.8335 36.2886 37.5435 35.5939 38.9092 34.2045C40.2748 32.8151 40.9576 31.0873 40.9576 29.021C40.9576 26.9548 40.2748 25.2329 38.9092 23.8554C37.5435 22.466 35.8335 21.7713 33.7791 21.7713H29.6644V36.2886H33.7791Z" fill="#004F98"/>
<path d="M78.0969 41.6146L76.5294 37.197H66.305L64.7375 41.6146H58.6812L68.1397 16.4453H74.8194L84.2957 41.6146H78.0969ZM68.1397 31.9779H74.6947L71.4172 22.6797L68.1397 31.9779Z" fill="#004F98"/>
<path d="M97.7977 27.2041H110.053V29.1457C110.053 31.592 109.501 33.8007 108.396 35.772C107.304 37.7433 105.784 39.287 103.836 40.4033C101.889 41.5077 99.7036 42.0599 97.2811 42.0599C95.4286 42.0599 93.683 41.7274 92.0442 41.0624C90.4055 40.3855 89.0042 39.4711 87.8404 38.3192C86.6767 37.1673 85.7564 35.7898 85.0795 34.1867C84.4145 32.5717 84.082 30.8498 84.082 29.021C84.082 27.1923 84.4204 25.4763 85.0973 23.8732C85.7742 22.2582 86.7004 20.8747 87.8761 19.7228C89.0517 18.571 90.4648 17.6625 92.1155 16.9975C93.7661 16.3325 95.5236 16 97.388 16C99.5493 16 101.544 16.4334 103.373 17.3003C105.214 18.1553 106.71 19.331 107.862 20.8272L103.587 24.2116C102.874 23.3329 101.99 22.6441 100.933 22.1454C99.8758 21.6466 98.7299 21.3972 97.4949 21.3972C95.3217 21.3972 93.5049 22.1275 92.0442 23.5882C90.5955 25.0369 89.8711 26.8479 89.8711 29.021C89.8711 31.1942 90.5955 33.0111 92.0442 34.4717C93.493 35.9205 95.298 36.6448 97.4593 36.6448C99.0386 36.6448 100.422 36.2411 101.61 35.4336C102.797 34.6261 103.593 33.5632 103.996 32.2451H97.7977V27.2041Z" fill="#004F98"/>
<path d="M129.54 16.4453H135.204V41.6146H129.469L119.048 26.2244V41.6146H113.384V16.4453H119.084L129.54 31.8354V16.4453Z" fill="#004F98"/>
<path d="M176.844 42.0599C174.908 42.0599 172.973 41.6977 171.037 40.9733C169.101 40.2489 167.475 39.293 166.156 38.1055L169.078 33.8126C170.123 34.7745 171.34 35.5523 172.729 36.1461C174.13 36.728 175.49 37.0189 176.808 37.0189C177.972 37.0189 178.958 36.7873 179.765 36.3242C180.585 35.8611 180.994 35.2673 180.994 34.5429C180.994 34.2579 180.935 34.0026 180.816 33.777C180.709 33.5395 180.519 33.3257 180.246 33.1357C179.985 32.9457 179.73 32.7854 179.48 32.6548C179.243 32.5123 178.886 32.3698 178.411 32.2273C177.936 32.0729 177.551 31.9601 177.254 31.8889C176.969 31.8057 176.529 31.6929 175.936 31.5504C170.069 30.1373 167.136 27.4595 167.136 23.5169C167.136 21.2607 168.027 19.4438 169.808 18.0663C171.589 16.6888 173.935 16 176.844 16C178.708 16 180.412 16.285 181.956 16.855C183.512 17.425 184.776 18.1731 185.75 19.0994L183.114 23.4101C182.378 22.7094 181.434 22.1394 180.282 21.7C179.13 21.2607 177.972 21.041 176.808 21.041C175.68 21.041 174.754 21.2547 174.03 21.6822C173.305 22.0979 172.943 22.6382 172.943 23.3032C172.943 23.6951 173.068 24.0513 173.317 24.3719C173.566 24.6926 173.923 24.9657 174.386 25.1913C174.861 25.4169 175.342 25.6069 175.829 25.7613C176.327 25.9157 176.897 26.0582 177.539 26.1888C177.978 26.2838 178.388 26.3848 178.768 26.4916C179.148 26.5866 179.67 26.7529 180.335 26.9904C181 27.216 181.6 27.4654 182.134 27.7385C182.669 27.9998 183.239 28.3501 183.844 28.7895C184.45 29.217 184.955 29.686 185.358 30.1967C185.774 30.6954 186.118 31.301 186.392 32.0135C186.665 32.7142 186.801 33.4682 186.801 34.2758C186.801 35.7839 186.362 37.1376 185.483 38.337C184.604 39.5245 183.411 40.4449 181.903 41.098C180.395 41.7392 178.708 42.0599 176.844 42.0599Z" fill="#004F98"/>
<path d="M216.887 21.7713H206.021V26.5451H215.462V31.871H206.021V41.6146H200.357V16.4453H216.887V21.7713Z" fill="#004F98"/>
<path d="M236.677 16.4453H243L233.363 32.9754V41.6146H227.699V32.9754L218.08 16.4453H224.493L230.585 27.1685L236.677 16.4453Z" fill="#004F98"/>
<path fill-rule="evenodd" clip-rule="evenodd" d="M142.409 26.2327C143.491 25.1924 144.924 24.5579 146.45 24.4436C147.976 24.3293 149.486 25.2844 150.722 26.151C152.029 25.242 153.651 24.2973 155.253 24.4805C156.854 24.6636 158.325 25.4194 159.374 26.5977C160.422 27.776 160.971 29.2905 160.912 30.8401C160.852 32.3897 160.188 33.8611 159.052 34.9616L153 40.7813C152.398 41.3598 151.581 41.6849 150.73 41.6849C149.879 41.6849 149.063 41.3598 148.461 40.7813L142.409 34.9627C141.205 33.8051 140.529 32.2352 140.529 30.5982C140.529 28.9612 141.205 27.3902 142.409 26.2327Z" fill="#EE2E31"/>
<path d="M139.796 24.9378L149.214 17.5383C150.115 16.8303 151.383 16.8303 152.284 17.5383L161.702 24.9378" stroke="#EE2E31" stroke-width="1.86374" stroke-linecap="round"/>
</svg>
